<svg fill="none" height="32" viewBox="0 0 32 32" width="32" xmlns="http://www.w3.org/2000/svg"><path d="m27.6947 22.9999c.1883-.3382.3053-.7192.3053-1.0614v-11.8772c0-.34217-.1169-.72312-.3053-1.0613l-11.6947 7z" fill="#00599c"/><path d="m17.0395 29.7433 9.9216-5.9386c.2858-.1711.5456-.4665.7339-.8047l-11.6947-7-11.69464 7c.18832.3382.44816.6337.73389.8047l9.92155 5.9386c.5715.3422 1.5069.3422 2.0784 0z" fill="#004482"/><path d="m27.6947 8.99996c-.1883-.33826-.4482-.63367-.7339-.80475l-9.9216-5.93859c-.5715-.34216-1.5069-.34216-2.0784 0l-9.92158 5.93859c-.57161.34208-1.03922 1.18188-1.03922 1.86609v11.8773c0 .3421.11694.7232.30533 1.0614l11.69467-7z" fill="#659ad2"/><g fill="#fff"><path d="m16.0385 24c-4.4324 0-8.0385-3.5888-8.0385-8s3.6061-8 8.0385-8c2.8073 0 5.4289 1.47569 6.8805 3.8618l-3.4425 2.0647c-.7273-1.1905-2.0366-1.9265-3.438-1.9265-2.2163 0-4.0192 1.7944-4.0192 4s1.8029 4 4.0192 4c1.3977 0 2.7036-.7319 3.4322-1.9168l3.4498 2.0527c-1.4513 2.3875-4.0738 3.8641-6.882 3.8641z"/><path d="m23 15.4948h-1.0001v-.9948h-.9998v.9948h-1.0001v.9947h1.0001v.9949h.9998v-.9949h1.0001z"/><path d="m27 15.5h-1.0001v-1h-.9998v1h-1.0001v.9999h1.0001v1.0001h.9998v-1.0001h1.0001z"/></g></svg>